<svg xmlns="http://www.w3.org/2000/svg" xmlns:xlink="http://www.w3.org/1999/xlink" width="500" zoomAndPan="magnify" viewBox="0 0 375 374.999991" height="500" preserveAspectRatio="xMidYMid meet" version="1.0"><defs><clipPath id="id1"><path d="M 40.226562 1 L 241 1 L 241 190 L 40.226562 190 Z M 40.226562 1 " clip-rule="nonzero"/></clipPath></defs><g clip-path="url(#id1)"><path fill="#5c913b" d="M 195.132812 93.886719 C 192.316406 60.300781 217.1875 45.949219 217.1875 45.949219 C 184.675781 47.097656 167.449219 74.652344 167.449219 74.652344 C 159.804688 61.449219 177.0625 33.902344 189.492188 26.722656 C 156.988281 27.871094 152.191406 48.253906 152.191406 48.253906 C 136.914062 21.835938 141.722656 1.464844 141.722656 1.464844 C 130.328125 8.035156 123.761719 22.921875 119.960938 37.132812 L 96.402344 10.015625 C 94.066406 20.617188 98 42.25 102.226562 60.382812 C 71.175781 42.199219 42.230469 58.859375 42.230469 58.859375 C 82.375 70.921875 97.621094 97.332031 97.621094 97.332031 C 97.621094 97.332031 57.496094 85.273438 40.238281 112.828125 C 66.632812 111.894531 85.972656 117.898438 99.757812 125.320312 C 87.9375 128.257812 67.792969 122.925781 55.492188 139.246094 C 55.492188 139.246094 87.996094 138.097656 94.632812 149.960938 C 72.558594 156.199219 58.296875 172.824219 58.296875 172.824219 C 103.242188 164.515625 151.023438 189.773438 151.023438 189.773438 L 213.214844 153.902344 C 202.757812 107.109375 240.066406 85.578125 240.066406 85.578125 C 212.382812 66.332031 195.132812 93.886719 195.132812 93.886719 Z M 195.132812 93.886719 " fill-opacity="1" fill-rule="nonzero"/></g><path fill="#ffac33" d="M 310.175781 228.429688 C 335.464844 272.195312 322.558594 326.949219 281.34375 350.726562 C 240.128906 374.5 186.21875 358.300781 160.941406 314.546875 L 144.792969 286.585938 C 119.503906 242.8125 132.421875 188.078125 173.628906 164.300781 C 214.839844 140.527344 268.75 156.714844 294.027344 200.480469 Z M 310.175781 228.429688 " fill-opacity="1" fill-rule="nonzero"/><path fill="#ffcc4d" d="M 320.363281 253.660156 C 318.238281 245.046875 314.875 236.546875 310.175781 228.429688 L 308.289062 225.148438 L 308.289062 225.160156 L 288.457031 216.75 L 294.800781 201.808594 L 294.039062 200.480469 C 273.457031 164.832031 233.867188 147.492188 197.625 155.121094 L 189.308594 174.683594 L 170.160156 166.558594 C 136.824219 188.109375 123.742188 230.734375 137.007812 269.421875 L 147.230469 273.757812 L 143.15625 283.367188 C 143.714844 284.433594 144.191406 285.519531 144.8125 286.566406 L 160.964844 314.527344 C 167.925781 326.582031 177.125 336.464844 187.570312 344.074219 L 189.898438 338.609375 L 209.730469 347.019531 L 206.4375 354.777344 C 213.195312 357.589844 220.226562 359.5 227.382812 360.585938 L 229.570312 355.4375 L 243.828125 361.480469 C 255.457031 360.992188 267 358.070312 277.804688 352.511719 L 277.632812 352.441406 L 286.046875 332.625 L 298.132812 337.746094 C 303.4375 332.453125 308.023438 326.53125 311.691406 320.113281 L 294.484375 312.800781 L 302.898438 292.984375 L 319.84375 300.167969 C 321.785156 293.058594 322.902344 285.671875 323.054688 278.15625 L 311.316406 273.179688 L 319.730469 253.363281 Z M 257.222656 180.097656 L 277.042969 188.515625 L 268.628906 208.320312 L 248.796875 199.910156 Z M 260.210938 228.144531 L 251.796875 247.953125 L 231.96875 239.550781 L 240.382812 219.738281 Z M 217.554688 163.277344 L 237.382812 171.6875 L 228.957031 191.511719 L 209.128906 183.101562 Z M 200.722656 202.90625 L 220.554688 211.316406 L 212.136719 231.132812 L 192.316406 222.722656 Z M 161.066406 186.097656 L 180.882812 194.507812 L 172.46875 214.304688 L 152.648438 205.894531 Z M 135.816406 245.542969 L 144.234375 225.71875 L 164.0625 234.128906 L 155.636719 253.953125 Z M 178.464844 310.394531 L 158.636719 301.996094 L 167.050781 282.179688 L 186.878906 290.589844 Z M 175.464844 262.355469 L 183.890625 242.539062 L 203.722656 250.9375 L 195.296875 270.761719 Z M 218.113281 327.214844 L 198.292969 318.804688 L 206.710938 299 L 226.53125 307.417969 Z M 215.125 279.171875 L 223.542969 259.347656 L 243.371094 267.765625 L 234.957031 287.59375 Z M 257.785156 344.050781 L 237.953125 335.644531 L 246.371094 315.828125 L 266.199219 324.238281 Z M 274.625 304.402344 L 254.804688 296.003906 L 263.222656 276.175781 L 283.039062 284.585938 Z M 291.457031 264.78125 L 271.625 256.371094 L 280.042969 236.566406 L 299.871094 244.964844 Z M 291.457031 264.78125 " fill-opacity="1" fill-rule="nonzero"/></svg>